<?xml version="1.0" standalone="no"?>
<!DOCTYPE svg PUBLIC "-//W3C//DTD SVG 20010904//EN"
 "http://www.w3.org/TR/2001/REC-SVG-20010904/DTD/svg10.dtd">
<svg version="1.0" xmlns="http://www.w3.org/2000/svg"
 width="700.000000pt" height="700.000000pt" viewBox="0 0 700.000000 700.000000"
 preserveAspectRatio="xMidYMid meet">
<metadata>
Created by potrace 1.11, written by Peter Selinger 2001-2013
</metadata>
<g transform="translate(0.000000,700.000000) scale(0.100000,-0.100000)"
fill="#000000" stroke="none">
<path d="M4028 5680 l-818 -818 -2 631 -3 632 -1162 0 c-789 1 -1164 -3 -1166
-10 -2 -5 -3 -530 -3 -1165 l1 -1155 1165 0 1165 0 3 528 c1 290 4 527 5 527
2 0 371 -368 821 -817 l817 -818 -530 -3 -531 -2 2 -1168 3 -1167 1165 0 1165
0 0 1165 0 1165 -632 3 -632 2 825 825 824 824 -820 818 c-451 450 -826 819
-832 819 -7 1 -381 -366 -830 -816z"/>
<path d="M879 3203 c-1 -5 -2 -529 -3 -1165 -1 -765 2 -1159 9 -1161 5 -2 530
-3 1165 -3 l1155 1 3 1168 2 1167 -1165 0 c-641 0 -1166 -3 -1166 -7z"/>
</g>
</svg>
